A man stays alone with his children in a half demolished house in the middle of a desolate field. His wife has just been killed by a grenade in a military battle. He is expecting a new attack. Instead a wandering caravan called Circus Fantasticus stops by the house. They bring along the dying director of the circus. Is it possible for anything beautiful to happen in a landscape of war and death? Can life go on? Is it possible to realize that death does not exist? From IMDb.


General
Complete name                            : Janez Burger - Circus.Fantasticus.2010.HR.PDTV.x264-EXPERiMENTALCircus.Fantasticus.2010.HR.PDTV.x264-EXPERiMENTAL.mkv
Format                                   : Matroska
Format version                           : Version 2
File size                                : 907 MiB
Duration                                 : 1h 13mn
Overall bit rate                         : 1 716 Kbps
Writing application                      : x264.exe
Writing library                          : mkv2rls v1.3 (date: 2010 aug 28)

Video
ID                                       : 1
Format                                   : AVC
Format/Info                              : Advanced Video Codec
Format profile                           : High@L4.1
Format settings, CABAC                   : Yes
Format settings, ReFrames                : 8 frames
Codec ID                                 : V_MPEG4/ISO/AVC
Duration                                 : 1h 13mn
Bit rate                                 : 1 490 Kbps
Width                                    : 960 pixels
Height                                   : 408 pixels
Display aspect ratio                     : 2.35:1
Frame rate                               : 25.000 fps
Color space                              : YUV
Chroma subsampling                       : 4:2:0
Bit depth                                : 8 bits
Scan type                                : Progressive
Bits/(Pixel*Frame)                       : 0.152
Stream size                              : 787 MiB (87%)
Writing library                          : x264 core 120 r2164 da19765
Encoding settings                        : cabac=1 / ref=8 / deblock=1:0:0 / analyse=0x3:0x133 / me=umh / subme=9 / psy=1 / psy_rd=1.00:0.00 / mixed_ref=1 / me_range=16 / chroma_me=1 / trellis=2 / 8x8dct=1 / cqm=0 / deadzone=21,11 / fast_pskip=1 / chroma_qp_offset=-2 / threads=12 / sliced_threads=0 / nr=0 / decimate=1 / interlaced=0 / bluray_compat=0 / constrained_intra=0 / bframes=3 / b_pyramid=2 / b_adapt=2 / b_bias=0 / direct=3 / weightb=1 / open_gop=0 / weightp=2 / keyint=250 / keyint_min=25 / scenecut=40 / intra_refresh=0 / rc_lookahead=60 / rc=crf / mbtree=1 / crf=17.0 / qcomp=0.60 / qpmin=0 / qpmax=69 / qpstep=4 / ip_ratio=1.40 / aq=1:1.00
Language                                 : English
Default                                  : Yes
Forced                                   : No
Matrix coefficients                      : BT.709-5, BT.1361, IEC 61966-2-4 709, SMPTE RP177

Audio
ID                                       : 2
Format                                   : AC-3
Format/Info                              : Audio Coding 3
Mode extension                           : CM (complete main)
Format settings, Endianness              : Big
Codec ID                                 : A_AC3
Duration                                 : 1h 13mn
Bit rate mode                            : Constant
Bit rate                                 : 192 Kbps
Channel(s)                               : 2 channels
Channel positions                        : Front: L R
Sampling rate                            : 48.0 KHz
Bit depth                                : 16 bits
Compression mode                         : Lossy
Stream size                              : 101 MiB (11%)
Title                                    : English AC3 192kbps
Language                                 : English
Default                                  : Yes
Forced                                   : No

